<?xml version="1.0" encoding="UTF-8"?>
<svg xmlns="http://www.w3.org/2000/svg" xmlns:xlink="http://www.w3.org/1999/xlink" width="16px" height="16px" viewBox="0 0 16 16" version="1.1">
<g id="surface1">
<path style=" stroke:none;fill-rule:evenodd;fill:rgb(9.803922%,10.588235%,10.588235%);fill-opacity:1;" d="M 0.96875 1.96875 C 5.636719 1.96875 10.300781 1.96875 14.96875 1.96875 C 14.96875 6.300781 14.96875 10.636719 14.96875 14.96875 C 10.300781 14.96875 5.636719 14.96875 0.96875 14.96875 C 0.96875 10.636719 0.96875 6.300781 0.96875 1.96875 Z M 0.96875 1.96875 "/>
<path style=" stroke:none;fill-rule:evenodd;fill:rgb(32.156863%,21.960784%,3.529412%);fill-opacity:1;" d="M 2.96875 2.96875 C 2.96875 3.300781 2.96875 3.636719 2.96875 3.96875 C 2.636719 3.96875 2.300781 3.96875 1.96875 3.96875 C 1.96875 3.636719 1.96875 3.300781 1.96875 2.96875 C 2.300781 2.96875 2.636719 2.96875 2.96875 2.96875 Z M 2.96875 2.96875 "/>
<path style=" stroke:none;fill-rule:evenodd;fill:rgb(56.078431%,37.647059%,7.843137%);fill-opacity:1;" d="M 2.96875 2.96875 C 3.636719 2.96875 4.300781 2.96875 4.96875 2.96875 C 4.96875 3.300781 4.96875 3.636719 4.96875 3.96875 C 4.636719 3.96875 4.300781 3.96875 3.96875 3.96875 C 3.96875 4.300781 3.96875 4.636719 3.96875 4.96875 C 3.300781 4.96875 2.636719 4.96875 1.96875 4.96875 C 1.96875 4.636719 1.96875 4.300781 1.96875 3.96875 C 2.300781 3.96875 2.636719 3.96875 2.96875 3.96875 C 2.96875 3.636719 2.96875 3.300781 2.96875 2.96875 Z M 2.96875 2.96875 "/>
<path style=" stroke:none;fill-rule:evenodd;fill:rgb(79.215686%,53.333333%,12.156863%);fill-opacity:1;" d="M 4.96875 2.96875 C 6.96875 2.96875 8.96875 2.96875 10.96875 2.96875 C 10.96875 3.300781 10.96875 3.636719 10.96875 3.96875 C 11.300781 3.96875 11.636719 3.96875 11.96875 3.96875 C 11.96875 4.300781 11.96875 4.636719 11.96875 4.96875 C 12.636719 4.96875 13.300781 4.96875 13.96875 4.96875 C 13.96875 5.300781 13.96875 5.636719 13.96875 5.96875 C 12.300781 5.96875 10.636719 5.96875 8.96875 5.96875 C 8.96875 5.636719 8.96875 5.300781 8.96875 4.96875 C 8.96875 4.636719 8.96875 4.300781 8.96875 3.96875 C 8.636719 3.96875 8.300781 3.96875 7.96875 3.96875 C 7.96875 4.300781 7.96875 4.636719 7.96875 4.96875 C 7.636719 4.96875 7.300781 4.96875 6.96875 4.96875 C 6.96875 4.636719 6.96875 4.300781 6.96875 3.96875 C 6.636719 3.96875 6.300781 3.96875 5.96875 3.96875 C 5.96875 4.300781 5.96875 4.636719 5.96875 4.96875 C 5.636719 4.96875 5.300781 4.96875 4.96875 4.96875 C 4.96875 5.300781 4.96875 5.636719 4.96875 5.96875 C 3.96875 5.96875 2.96875 5.96875 1.96875 5.96875 C 1.96875 5.636719 1.96875 5.300781 1.96875 4.96875 C 2.636719 4.96875 3.300781 4.96875 3.96875 4.96875 C 3.96875 4.636719 3.96875 4.300781 3.96875 3.96875 C 4.300781 3.96875 4.636719 3.96875 4.96875 3.96875 C 4.96875 3.636719 4.96875 3.300781 4.96875 2.96875 Z M 4.96875 2.96875 "/>
<path style=" stroke:none;fill-rule:evenodd;fill:rgb(56.078431%,37.647059%,7.843137%);fill-opacity:1;" d="M 10.96875 2.96875 C 11.636719 2.96875 12.300781 2.96875 12.96875 2.96875 C 12.96875 3.300781 12.96875 3.636719 12.96875 3.96875 C 13.300781 3.96875 13.636719 3.96875 13.96875 3.96875 C 13.96875 4.300781 13.96875 4.636719 13.96875 4.96875 C 13.300781 4.96875 12.636719 4.96875 11.96875 4.96875 C 11.96875 4.636719 11.96875 4.300781 11.96875 3.96875 C 11.636719 3.96875 11.300781 3.96875 10.96875 3.96875 C 10.96875 3.636719 10.96875 3.300781 10.96875 2.96875 Z M 10.96875 2.96875 "/>
<path style=" stroke:none;fill-rule:evenodd;fill:rgb(32.156863%,21.960784%,3.529412%);fill-opacity:1;" d="M 12.96875 2.96875 C 13.300781 2.96875 13.636719 2.96875 13.96875 2.96875 C 13.96875 3.300781 13.96875 3.636719 13.96875 3.96875 C 13.96875 3.636719 13.96875 3.300781 13.96875 2.96875 C 13.636719 2.96875 13.300781 2.96875 12.96875 2.96875 Z M 12.96875 2.96875 "/>
<path style=" stroke:none;fill-rule:evenodd;fill:rgb(93.333333%,62.745098%,14.901961%);fill-opacity:1;" d="M 6.96875 4.96875 C 6.636719 4.96875 6.300781 4.96875 5.96875 4.96875 C 5.96875 4.636719 5.96875 4.300781 5.96875 3.96875 C 6.300781 3.96875 6.636719 3.96875 6.96875 3.96875 C 6.96875 4.300781 6.96875 4.636719 6.96875 4.96875 Z M 6.96875 4.96875 "/>
<path style=" stroke:none;fill-rule:evenodd;fill:rgb(93.333333%,62.745098%,14.901961%);fill-opacity:1;" d="M 8.96875 4.96875 C 8.636719 4.96875 8.300781 4.96875 7.96875 4.96875 C 7.96875 4.636719 7.96875 4.300781 7.96875 3.96875 C 8.300781 3.96875 8.636719 3.96875 8.96875 3.96875 C 8.96875 4.300781 8.96875 4.636719 8.96875 4.96875 Z M 8.96875 4.96875 "/>
<path style=" stroke:none;fill-rule:evenodd;fill:rgb(93.333333%,62.745098%,14.901961%);fill-opacity:1;" d="M 10.96875 3.96875 C 10.96875 4.300781 10.96875 4.636719 10.96875 4.96875 C 10.636719 4.96875 10.300781 4.96875 9.96875 4.96875 C 9.96875 4.636719 9.96875 4.300781 9.96875 3.96875 C 10.300781 3.96875 10.636719 3.96875 10.96875 3.96875 Z M 10.96875 3.96875 "/>
<path style=" stroke:none;fill-rule:evenodd;fill:rgb(93.333333%,62.745098%,14.901961%);fill-opacity:1;" d="M 5.96875 4.96875 C 5.96875 5.300781 5.96875 5.636719 5.96875 5.96875 C 5.636719 5.96875 5.300781 5.96875 4.96875 5.96875 C 4.96875 5.636719 4.96875 5.300781 4.96875 4.96875 C 5.300781 4.96875 5.636719 4.96875 5.96875 4.96875 Z M 5.96875 4.96875 "/>
<path style=" stroke:none;fill-rule:evenodd;fill:rgb(79.215686%,53.333333%,12.156863%);fill-opacity:1;" d="M 5.96875 4.96875 C 6.300781 4.96875 6.636719 4.96875 6.96875 4.96875 C 6.96875 5.300781 6.96875 5.636719 6.96875 5.96875 C 6.636719 5.96875 6.300781 5.96875 5.96875 5.96875 C 5.96875 5.636719 5.96875 5.300781 5.96875 4.96875 Z M 5.96875 4.96875 "/>
<path style=" stroke:none;fill-rule:evenodd;fill:rgb(42.745098%,46.27451%,47.45098%);fill-opacity:1;" d="M 6.96875 4.96875 C 7.300781 4.96875 7.636719 4.96875 7.96875 4.96875 C 7.96875 5.96875 7.96875 6.96875 7.96875 7.96875 C 7.636719 7.96875 7.300781 7.96875 6.96875 7.96875 C 6.96875 7.636719 6.96875 7.300781 6.96875 6.96875 C 6.96875 6.636719 6.96875 6.300781 6.96875 5.96875 C 6.96875 5.636719 6.96875 5.300781 6.96875 4.96875 Z M 6.96875 4.96875 "/>
<path style=" stroke:none;fill-rule:evenodd;fill:rgb(60.784314%,65.490196%,67.843137%);fill-opacity:1;" d="M 7.96875 4.96875 C 8.300781 4.96875 8.636719 4.96875 8.96875 4.96875 C 8.96875 5.300781 8.96875 5.636719 8.96875 5.96875 C 8.96875 6.300781 8.96875 6.636719 8.96875 6.96875 C 8.96875 7.300781 8.96875 7.636719 8.96875 7.96875 C 8.636719 7.96875 8.300781 7.96875 7.96875 7.96875 C 7.96875 6.96875 7.96875 5.96875 7.96875 4.96875 Z M 7.96875 4.96875 "/>
<path style=" stroke:none;fill-rule:evenodd;fill:rgb(32.156863%,21.960784%,3.529412%);fill-opacity:1;" d="M 2.96875 6.96875 C 2.96875 7.300781 2.96875 7.636719 2.96875 7.96875 C 2.636719 7.96875 2.300781 7.96875 1.96875 7.96875 C 1.96875 7.636719 1.96875 7.300781 1.96875 6.96875 C 2.300781 6.96875 2.636719 6.96875 2.96875 6.96875 Z M 2.96875 6.96875 "/>
<path style=" stroke:none;fill-rule:evenodd;fill:rgb(56.078431%,37.647059%,7.843137%);fill-opacity:1;" d="M 2.96875 6.96875 C 3.300781 6.96875 3.636719 6.96875 3.96875 6.96875 C 3.96875 7.300781 3.96875 7.636719 3.96875 7.96875 C 3.636719 7.96875 3.300781 7.96875 2.96875 7.96875 C 2.96875 7.636719 2.96875 7.300781 2.96875 6.96875 Z M 2.96875 6.96875 "/>
<path style=" stroke:none;fill-rule:evenodd;fill:rgb(79.215686%,53.333333%,12.156863%);fill-opacity:1;" d="M 3.96875 6.96875 C 4.96875 6.96875 5.96875 6.96875 6.96875 6.96875 C 6.96875 7.300781 6.96875 7.636719 6.96875 7.96875 C 7.300781 7.96875 7.636719 7.96875 7.96875 7.96875 C 8.300781 7.96875 8.636719 7.96875 8.96875 7.96875 C 8.96875 7.636719 8.96875 7.300781 8.96875 6.96875 C 9.96875 6.96875 10.96875 6.96875 11.96875 6.96875 C 11.96875 7.300781 11.96875 7.636719 11.96875 7.96875 C 12.300781 7.96875 12.636719 7.96875 12.96875 7.96875 C 12.96875 8.300781 12.96875 8.636719 12.96875 8.96875 C 13.300781 8.96875 13.636719 8.96875 13.96875 8.96875 C 13.96875 9.636719 13.96875 10.300781 13.96875 10.96875 C 13.636719 10.96875 13.300781 10.96875 12.96875 10.96875 C 12.96875 11.300781 12.96875 11.636719 12.96875 11.96875 C 12.300781 11.96875 11.636719 11.96875 10.96875 11.96875 C 10.96875 12.300781 10.96875 12.636719 10.96875 12.96875 C 8.96875 12.96875 6.96875 12.96875 4.96875 12.96875 C 4.96875 12.636719 4.96875 12.300781 4.96875 11.96875 C 4.300781 11.96875 3.636719 11.96875 2.96875 11.96875 C 2.96875 11.636719 2.96875 11.300781 2.96875 10.96875 C 2.636719 10.96875 2.300781 10.96875 1.96875 10.96875 C 1.96875 10.300781 1.96875 9.636719 1.96875 8.96875 C 2.300781 8.96875 2.636719 8.96875 2.96875 8.96875 C 2.96875 8.636719 2.96875 8.300781 2.96875 7.96875 C 3.300781 7.96875 3.636719 7.96875 3.96875 7.96875 C 3.96875 7.636719 3.96875 7.300781 3.96875 6.96875 Z M 3.96875 6.96875 "/>
<path style=" stroke:none;fill-rule:evenodd;fill:rgb(56.078431%,37.647059%,7.843137%);fill-opacity:1;" d="M 11.96875 6.96875 C 12.300781 6.96875 12.636719 6.96875 12.96875 6.96875 C 12.96875 7.300781 12.96875 7.636719 12.96875 7.96875 C 12.636719 7.96875 12.300781 7.96875 11.96875 7.96875 C 11.96875 7.636719 11.96875 7.300781 11.96875 6.96875 Z M 11.96875 6.96875 "/>
<path style=" stroke:none;fill-rule:evenodd;fill:rgb(32.156863%,21.960784%,3.529412%);fill-opacity:1;" d="M 12.96875 6.96875 C 13.300781 6.96875 13.636719 6.96875 13.96875 6.96875 C 13.96875 7.300781 13.96875 7.636719 13.96875 7.96875 C 13.636719 7.96875 13.300781 7.96875 12.96875 7.96875 C 12.96875 7.636719 12.96875 7.300781 12.96875 6.96875 Z M 12.96875 6.96875 "/>
<path style=" stroke:none;fill-rule:evenodd;fill:rgb(56.078431%,37.647059%,7.843137%);fill-opacity:1;" d="M 1.96875 7.96875 C 2.300781 7.96875 2.636719 7.96875 2.96875 7.96875 C 2.96875 8.300781 2.96875 8.636719 2.96875 8.96875 C 2.636719 8.96875 2.300781 8.96875 1.96875 8.96875 C 1.96875 8.636719 1.96875 8.300781 1.96875 7.96875 Z M 1.96875 7.96875 "/>
<path style=" stroke:none;fill-rule:evenodd;fill:rgb(93.333333%,62.745098%,14.901961%);fill-opacity:1;" d="M 6.96875 7.96875 C 6.96875 8.636719 6.96875 9.300781 6.96875 9.96875 C 6.636719 9.96875 6.300781 9.96875 5.96875 9.96875 C 5.96875 9.300781 5.96875 8.636719 5.96875 7.96875 C 6.300781 7.96875 6.636719 7.96875 6.96875 7.96875 Z M 6.96875 7.96875 "/>
<path style=" stroke:none;fill-rule:evenodd;fill:rgb(93.333333%,62.745098%,14.901961%);fill-opacity:1;" d="M 11.96875 7.96875 C 11.96875 8.300781 11.96875 8.636719 11.96875 8.96875 C 11.636719 8.96875 11.300781 8.96875 10.96875 8.96875 C 10.96875 8.636719 10.96875 8.300781 10.96875 7.96875 C 11.300781 7.96875 11.636719 7.96875 11.96875 7.96875 Z M 11.96875 7.96875 "/>
<path style=" stroke:none;fill-rule:evenodd;fill:rgb(56.078431%,37.647059%,7.843137%);fill-opacity:1;" d="M 12.96875 7.96875 C 13.300781 7.96875 13.636719 7.96875 13.96875 7.96875 C 13.96875 8.300781 13.96875 8.636719 13.96875 8.96875 C 13.636719 8.96875 13.300781 8.96875 12.96875 8.96875 C 12.96875 8.636719 12.96875 8.300781 12.96875 7.96875 Z M 12.96875 7.96875 "/>
<path style=" stroke:none;fill-rule:evenodd;fill:rgb(93.333333%,62.745098%,14.901961%);fill-opacity:1;" d="M 4.96875 9.96875 C 4.636719 9.96875 4.300781 9.96875 3.96875 9.96875 C 3.96875 9.636719 3.96875 9.300781 3.96875 8.96875 C 4.300781 8.96875 4.636719 8.96875 4.96875 8.96875 C 4.96875 9.300781 4.96875 9.636719 4.96875 9.96875 Z M 4.96875 9.96875 "/>
<path style=" stroke:none;fill-rule:evenodd;fill:rgb(93.333333%,62.745098%,14.901961%);fill-opacity:1;" d="M 9.96875 10.96875 C 9.636719 10.96875 9.300781 10.96875 8.96875 10.96875 C 8.96875 10.636719 8.96875 10.300781 8.96875 9.96875 C 8.636719 9.96875 8.300781 9.96875 7.96875 9.96875 C 7.96875 9.636719 7.96875 9.300781 7.96875 8.96875 C 8.636719 8.96875 9.300781 8.96875 9.96875 8.96875 C 9.96875 9.636719 9.96875 10.300781 9.96875 10.96875 Z M 9.96875 10.96875 "/>
<path style=" stroke:none;fill-rule:evenodd;fill:rgb(93.333333%,62.745098%,14.901961%);fill-opacity:1;" d="M 4.96875 9.96875 C 5.300781 9.96875 5.636719 9.96875 5.96875 9.96875 C 5.96875 10.300781 5.96875 10.636719 5.96875 10.96875 C 5.636719 10.96875 5.300781 10.96875 4.96875 10.96875 C 4.96875 10.636719 4.96875 10.300781 4.96875 9.96875 Z M 4.96875 9.96875 "/>
<path style=" stroke:none;fill-rule:evenodd;fill:rgb(93.333333%,62.745098%,14.901961%);fill-opacity:1;" d="M 10.96875 10.96875 C 10.96875 10.636719 10.96875 10.300781 10.96875 9.96875 C 11.300781 9.96875 11.636719 9.96875 11.96875 9.96875 C 11.96875 10.300781 11.96875 10.636719 11.96875 10.96875 C 11.636719 10.96875 11.300781 10.96875 10.96875 10.96875 Z M 10.96875 10.96875 "/>
<path style=" stroke:none;fill-rule:evenodd;fill:rgb(56.078431%,37.647059%,7.843137%);fill-opacity:1;" d="M 1.96875 10.96875 C 2.300781 10.96875 2.636719 10.96875 2.96875 10.96875 C 2.96875 11.300781 2.96875 11.636719 2.96875 11.96875 C 3.636719 11.96875 4.300781 11.96875 4.96875 11.96875 C 4.96875 12.300781 4.96875 12.636719 4.96875 12.96875 C 6.96875 12.96875 8.96875 12.96875 10.96875 12.96875 C 10.96875 12.636719 10.96875 12.300781 10.96875 11.96875 C 11.636719 11.96875 12.300781 11.96875 12.96875 11.96875 C 12.96875 11.636719 12.96875 11.300781 12.96875 10.96875 C 13.300781 10.96875 13.636719 10.96875 13.96875 10.96875 C 13.96875 11.636719 13.96875 12.300781 13.96875 12.96875 C 13.300781 12.96875 12.636719 12.96875 11.96875 12.96875 C 11.96875 13.300781 11.96875 13.636719 11.96875 13.96875 C 9.300781 13.96875 6.636719 13.96875 3.96875 13.96875 C 3.96875 13.636719 3.96875 13.300781 3.96875 12.96875 C 3.300781 12.96875 2.636719 12.96875 1.96875 12.96875 C 1.96875 12.300781 1.96875 11.636719 1.96875 10.96875 Z M 1.96875 10.96875 "/>
<path style=" stroke:none;fill-rule:evenodd;fill:rgb(93.333333%,62.745098%,14.901961%);fill-opacity:1;" d="M 5.96875 10.96875 C 6.300781 10.96875 6.636719 10.96875 6.96875 10.96875 C 6.96875 11.300781 6.96875 11.636719 6.96875 11.96875 C 6.636719 11.96875 6.300781 11.96875 5.96875 11.96875 C 5.96875 11.636719 5.96875 11.300781 5.96875 10.96875 Z M 5.96875 10.96875 "/>
<path style=" stroke:none;fill-rule:evenodd;fill:rgb(93.333333%,62.745098%,14.901961%);fill-opacity:1;" d="M 8.96875 10.96875 C 8.96875 11.300781 8.96875 11.636719 8.96875 11.96875 C 8.636719 11.96875 8.300781 11.96875 7.96875 11.96875 C 7.96875 11.636719 7.96875 11.300781 7.96875 10.96875 C 8.300781 10.96875 8.636719 10.96875 8.96875 10.96875 Z M 8.96875 10.96875 "/>
<path style=" stroke:none;fill-rule:evenodd;fill:rgb(93.333333%,62.745098%,14.901961%);fill-opacity:1;" d="M 9.96875 10.96875 C 10.300781 10.96875 10.636719 10.96875 10.96875 10.96875 C 10.96875 11.300781 10.96875 11.636719 10.96875 11.96875 C 10.636719 11.96875 10.300781 11.96875 9.96875 11.96875 C 9.96875 11.636719 9.96875 11.300781 9.96875 10.96875 Z M 9.96875 10.96875 "/>
<path style=" stroke:none;fill-rule:evenodd;fill:rgb(32.156863%,21.960784%,3.529412%);fill-opacity:1;" d="M 1.96875 12.96875 C 2.636719 12.96875 3.300781 12.96875 3.96875 12.96875 C 3.96875 13.300781 3.96875 13.636719 3.96875 13.96875 C 3.300781 13.96875 2.636719 13.96875 1.96875 13.96875 C 1.96875 13.636719 1.96875 13.300781 1.96875 12.96875 Z M 1.96875 12.96875 "/>
<path style=" stroke:none;fill-rule:evenodd;fill:rgb(32.156863%,21.960784%,3.529412%);fill-opacity:1;" d="M 13.96875 12.96875 C 13.96875 13.300781 13.96875 13.636719 13.96875 13.96875 C 13.300781 13.96875 12.636719 13.96875 11.96875 13.96875 C 11.96875 13.636719 11.96875 13.300781 11.96875 12.96875 C 12.636719 12.96875 13.300781 12.96875 13.96875 12.96875 Z M 13.96875 12.96875 "/>
</g>
</svg>
